This Ain't Star Trek XXX

-------------------------

Huster Video

starring
Evan Stone, Tony De Sergio, Cheyne Collins, Nick Manning, Jada Fire, Ero Sennin, Anthony Rosano, Codi Carmichael, Jenna Haze, Sasha Grey, Aurora Snow

-------------------------


Star Trek Porn Parody

Internet Movie Database (IMDb): 
http://www.imdb.com/title/tt1489257/

-------------------------

General
Complete name                    : dp-tastxxx.x264.mkv
Format                           : Matroska
File size                        : 4.37 GiB
Duration                         : 1h 59mn
Overall bit rate                 : 5 233 Kbps
Encoded date                     : UTC 2009-06-26 01:35:43
Writing application              : mkvmerge v2.9.0 ('Moanin'')
                                   built on May 22 2009 17:46:31
Writing library                  : libebml v0.7.7 + libmatroska v0.8.1

Video
ID                               : 1
Format                           : AVC
Format/Info                      : Advanced Video Codec
Format profile                   : High@L4.1
Format settings, CABAC           : Yes
Format settings, ReFrames        : 5 frames
Muxing mode                      : Container profile=Unknown@4.1
Codec ID                         : V_MPEG4/ISO/AVC
Duration                         : 1h 59mn
Bit rate                         : 4 905 Kbps
Nominal bit rate                 : 5 008 Kbps
Width                            : 1 280 pixels
Height                           : 720 pixels
Display aspect ratio             : 16/9
Frame rate                       : 23.976 fps
Resolution                       : 24 bits
Colorimetry                      : 4:2:0
Scan type                        : Progressive
Bits/(Pixel*Frame)               : 0.222
Stream size                      : 4.10 GiB (94%)
Writing library                  : x264 core 67 r1171M 2c7cb4c
Language                         : English

Audio
ID                               : 2
Format                           : AC-3
Format/Info                      : Audio Coding 3
Codec ID                         : A_AC3
Duration                         : 1h 59mn
Bit rate mode                    : Constant
Bit rate                         : 224 Kbps
Channel(s)                       : 2 channels
Channel positions                : L R
Sampling rate                    : 48.0 KHz
Stream size                      : 192 MiB (4%)
Language                         : English


-------------------------

Re-upload of 
http://thepiratebay.org/torrent/5031213/
and 
http://thepiratebay.org/torrent/5088490/

The first one was the original one (in RAR files), the second one was my version (unrared but private).

As TPB does not have its own tracker anymore and private torrents don't use DHT and such decentralized stuff to help sharing, I decided to reupload the file as a public torrent (with DHT, peer exchange etc) with several open trackers added.

--------------------------

Originally from CrocBits.com

Cover 
http://bayimg.com/image/cadgbaaco.jpg

--------------------------

If people that already have this would switch then seeding will be faster. As it is seeding will be slow...